<?xml version="1.0" encoding="UTF-8"?>
<svg xmlns="http://www.w3.org/2000/svg" xmlns:xlink="http://www.w3.org/1999/xlink" width="24px" height="24px" viewBox="0 0 24 24" version="1.1">
<g id="surface1">
<path style=" stroke:none;fill-rule:nonzero;fill:rgb(0%,0%,0%);fill-opacity:1;" d="M 9.605469 3.605469 L 5.242188 3.605469 C 4.339844 3.605469 3.605469 4.339844 3.605469 5.242188 L 3.605469 9.605469 C 3.605469 10.511719 4.339844 11.242188 5.242188 11.242188 L 9.605469 11.242188 C 10.511719 11.242188 11.242188 10.511719 11.242188 9.605469 L 11.242188 5.242188 C 11.242188 4.339844 10.511719 3.605469 9.605469 3.605469 Z M 10.152344 8.984375 C 10.152344 9.628906 9.628906 10.152344 8.984375 10.152344 L 5.867188 10.152344 C 5.222656 10.152344 4.699219 9.628906 4.699219 8.984375 L 4.699219 5.867188 C 4.699219 5.222656 5.222656 4.699219 5.867188 4.699219 L 8.984375 4.699219 C 9.628906 4.699219 10.152344 5.222656 10.152344 5.867188 Z M 10.152344 8.984375 "/>
<path style=" stroke:none;fill-rule:nonzero;fill:rgb(0%,0%,0%);fill-opacity:1;" d="M 18.332031 3.605469 L 13.96875 3.605469 C 13.066406 3.605469 12.332031 4.339844 12.332031 5.242188 L 12.332031 9.605469 C 12.332031 10.511719 13.066406 11.242188 13.96875 11.242188 L 18.332031 11.242188 C 19.238281 11.242188 19.96875 10.511719 19.96875 9.605469 L 19.96875 5.242188 C 19.96875 4.339844 19.238281 3.605469 18.332031 3.605469 Z M 18.878906 8.984375 C 18.878906 9.628906 18.355469 10.152344 17.710938 10.152344 L 14.59375 10.152344 C 13.949219 10.152344 13.425781 9.628906 13.425781 8.984375 L 13.425781 5.867188 C 13.425781 5.222656 13.949219 4.699219 14.59375 4.699219 L 17.710938 4.699219 C 18.355469 4.699219 18.878906 5.222656 18.878906 5.867188 Z M 18.878906 8.984375 "/>
<path style=" stroke:none;fill-rule:nonzero;fill:rgb(0%,0%,0%);fill-opacity:1;" d="M 9.605469 12.335938 L 5.242188 12.335938 C 4.339844 12.335938 3.605469 13.066406 3.605469 13.96875 L 3.605469 18.332031 C 3.605469 19.238281 4.339844 19.96875 5.242188 19.96875 L 9.605469 19.96875 C 10.511719 19.96875 11.242188 19.238281 11.242188 18.332031 L 11.242188 13.96875 C 11.242188 13.066406 10.511719 12.335938 9.605469 12.335938 Z M 10.152344 17.710938 C 10.152344 18.355469 9.628906 18.878906 8.984375 18.878906 L 5.867188 18.878906 C 5.222656 18.878906 4.699219 18.355469 4.699219 17.710938 L 4.699219 14.59375 C 4.699219 13.949219 5.222656 13.425781 5.867188 13.425781 L 8.984375 13.425781 C 9.628906 13.425781 10.152344 13.949219 10.152344 14.59375 Z M 10.152344 17.710938 "/>
<path style=" stroke:none;fill-rule:nonzero;fill:rgb(0%,0%,0%);fill-opacity:1;" d="M 16.152344 12.335938 C 14.042969 12.335938 12.332031 14.042969 12.332031 16.152344 C 12.332031 18.261719 14.042969 19.96875 16.152344 19.96875 C 18.261719 19.96875 19.96875 18.261719 19.96875 16.152344 C 19.96875 14.042969 18.261719 12.335938 16.152344 12.335938 Z M 16.152344 18.878906 C 14.644531 18.878906 13.425781 17.65625 13.425781 16.152344 C 13.425781 14.644531 14.644531 13.425781 16.152344 13.425781 C 17.65625 13.425781 18.878906 14.644531 18.878906 16.152344 C 18.878906 17.65625 17.65625 18.878906 16.152344 18.878906 Z M 16.152344 18.878906 "/>
<path style=" stroke:none;fill-rule:nonzero;fill:rgb(0%,0%,0%);fill-opacity:1;" d="M 19.296875 18.496094 L 20.898438 20.097656 C 21.121094 20.320312 21.121094 20.679688 20.898438 20.898438 C 20.679688 21.121094 20.320312 21.121094 20.097656 20.898438 L 18.496094 19.296875 C 18.273438 19.074219 18.273438 18.714844 18.496094 18.496094 C 18.714844 18.273438 19.074219 18.273438 19.296875 18.496094 Z M 19.296875 18.496094 "/>
</g>
</svg>
