<?xml version="1.0" encoding="UTF-8"?>
<svg xmlns="http://www.w3.org/2000/svg" xmlns:xlink="http://www.w3.org/1999/xlink" width="24px" height="24px" viewBox="0 0 24 24" version="1.1">
<g id="surface1">
<path style=" stroke:none;fill-rule:nonzero;fill:rgb(0%,0%,0%);fill-opacity:1;" d="M 23.996094 3.433594 C 23.996094 4.066406 23.476562 4.585938 22.84375 4.585938 L 6.984375 4.585938 C 6.347656 4.585938 5.832031 4.066406 5.832031 3.433594 C 5.832031 2.796875 6.347656 2.28125 6.984375 2.28125 L 22.847656 2.28125 C 23.484375 2.285156 23.996094 2.796875 23.996094 3.433594 Z M 22.847656 7.992188 L 6.984375 7.992188 C 6.347656 7.992188 5.832031 8.511719 5.832031 9.144531 C 5.832031 9.78125 6.347656 10.296875 6.984375 10.296875 L 22.847656 10.296875 C 23.484375 10.296875 24 9.78125 24 9.144531 C 23.996094 8.511719 23.484375 7.992188 22.847656 7.992188 Z M 22.847656 13.707031 L 6.984375 13.707031 C 6.347656 13.707031 5.832031 14.222656 5.832031 14.859375 C 5.832031 15.496094 6.347656 16.011719 6.984375 16.011719 L 22.847656 16.011719 C 23.484375 16.011719 24 15.496094 24 14.859375 C 23.996094 14.222656 23.484375 13.707031 22.847656 13.707031 Z M 22.847656 19.417969 L 6.984375 19.417969 C 6.347656 19.417969 5.832031 19.9375 5.832031 20.570312 C 5.832031 21.207031 6.347656 21.722656 6.984375 21.722656 L 22.847656 21.722656 C 23.484375 21.722656 24 21.207031 24 20.570312 C 23.996094 19.9375 23.484375 19.417969 22.847656 19.417969 Z M 1.914062 1.515625 C 0.855469 1.515625 0 2.375 0 3.433594 C 0 4.492188 0.855469 5.355469 1.914062 5.355469 C 2.976562 5.355469 3.832031 4.492188 3.832031 3.433594 C 3.832031 2.375 2.976562 1.515625 1.914062 1.515625 Z M 1.914062 7.230469 C 0.855469 7.230469 0 8.085938 0 9.144531 C 0 10.203125 0.855469 11.0625 1.914062 11.0625 C 2.976562 11.0625 3.832031 10.203125 3.832031 9.144531 C 3.832031 8.085938 2.976562 7.230469 1.914062 7.230469 Z M 1.914062 12.941406 C 0.855469 12.941406 0 13.800781 0 14.859375 C 0 15.917969 0.855469 16.773438 1.914062 16.773438 C 2.976562 16.773438 3.832031 15.917969 3.832031 14.859375 C 3.832031 13.800781 2.976562 12.941406 1.914062 12.941406 Z M 1.914062 18.652344 C 0.855469 18.652344 0 19.507812 0 20.566406 C 0 21.625 0.855469 22.484375 1.914062 22.484375 C 2.976562 22.484375 3.832031 21.625 3.832031 20.566406 C 3.832031 19.511719 2.976562 18.652344 1.914062 18.652344 Z M 1.914062 18.652344 "/>
</g>
</svg>
